<svg xmlns="http://www.w3.org/2000/svg" viewBox="0 0 1440 900" font-family="Inter, system-ui, sans-serif">
  <!-- Background -->
  <rect width="1440" height="900" fill="#F9FAFB"/>

  <!-- ── DESKTOP VIEW ─────────────────────────────────────────────────────── -->

  <!-- Sidebar -->
  <rect x="0" y="0" width="220" height="900" fill="#111827"/>
  <text x="24" y="36" font-size="18" font-weight="700" fill="#FFFFFF">StelloVault</text>
  <text x="24" y="60" font-size="10" fill="#6B7280">Trade Finance Platform</text>
  <!-- Nav items -->
  <rect x="12" y="76" width="196" height="36" rx="8" fill="#1D4ED8"/>
  <text x="44" y="99" font-size="13" font-weight="600" fill="#FFFFFF">Dashboard</text>
  <text x="44" y="135" font-size="13" fill="#9CA3AF">Loans</text>
  <text x="44" y="167" font-size="13" fill="#9CA3AF">Collateral</text>
  <text x="44" y="199" font-size="13" fill="#9CA3AF">Escrows</text>
  <text x="44" y="231" font-size="13" fill="#9CA3AF">Risk Score</text>
  <text x="44" y="263" font-size="13" fill="#9CA3AF">Governance</text>
  <text x="44" y="295" font-size="13" fill="#9CA3AF">Analytics</text>
  <!-- Wallet badge -->
  <rect x="12" y="840" width="196" height="44" rx="8" fill="#1F2937"/>
  <circle cx="32" cy="862" r="10" fill="#374151"/>
  <text x="48" y="858" font-size="10" fill="#9CA3AF">Connected wallet</text>
  <text x="48" y="872" font-size="9" fill="#6B7280">GBXYZ…HIG2K</text>

  <!-- Main content area -->
  <!-- Header -->
  <text x="244" y="44" font-size="22" font-weight="700" fill="#111827">Dashboard Overview</text>
  <text x="244" y="64" font-size="12" fill="#6B7280">Real-time visibility into your trade finance deals, collateral and settlements.</text>
  <!-- Header actions -->
  <rect x="1060" y="28" width="52" height="28" rx="6" fill="#ECFDF5"/>
  <circle cx="1073" cy="42" r="4" fill="#10B981"/>
  <text x="1082" y="46" font-size="10" fill="#065F46">Live</text>
  <rect x="1120" y="28" width="72" height="28" rx="6" fill="#FFFFFF" stroke="#E5E7EB" stroke-width="1"/>
  <text x="1140" y="46" font-size="11" fill="#374151">Refresh</text>
  <rect x="1200" y="28" width="72" height="28" rx="6" fill="#1D4ED8"/>
  <text x="1218" y="46" font-size="11" fill="#FFFFFF">Export</text>
  <rect x="1280" y="28" width="80" height="28" rx="6" fill="#FFFFFF" stroke="#E5E7EB" stroke-width="1"/>
  <text x="1296" y="46" font-size="11" fill="#374151">Widgets ▾</text>

  <!-- ── Stats Cards row ── -->
  <!-- Card 1 -->
  <rect x="244" y="84" width="218" height="80" rx="10" fill="#FFFFFF" filter="url(#shadow)"/>
  <text x="260" y="106" font-size="11" fill="#6B7280">Active loans</text>
  <text x="260" y="134" font-size="28" font-weight="700" fill="#111827">2</text>
  <!-- Card 2 -->
  <rect x="474" y="84" width="218" height="80" rx="10" fill="#FFFFFF" filter="url(#shadow)"/>
  <text x="490" y="106" font-size="11" fill="#6B7280">Collateral pledged</text>
  <text x="490" y="134" font-size="28" font-weight="700" fill="#111827">$155,000</text>
  <!-- Card 3 -->
  <rect x="704" y="84" width="218" height="80" rx="10" fill="#FFFFFF" filter="url(#shadow)"/>
  <text x="720" y="106" font-size="11" fill="#6B7280">Outstanding</text>
  <text x="720" y="134" font-size="28" font-weight="700" fill="#111827">$62,850</text>
  <!-- Card 4 -->
  <rect x="934" y="84" width="218" height="80" rx="10" fill="#FFFFFF" filter="url(#shadow)"/>
  <text x="950" y="106" font-size="11" fill="#6B7280">Repaid</text>
  <text x="950" y="134" font-size="28" font-weight="700" fill="#10B981">$13,500</text>
  <!-- Card 5 -->
  <rect x="1164" y="84" width="196" height="80" rx="10" fill="#FFFFFF" filter="url(#shadow)"/>
  <text x="1180" y="106" font-size="11" fill="#6B7280">Notifications</text>
  <text x="1180" y="134" font-size="28" font-weight="700" fill="#F59E0B">2</text>

  <!-- ── Portfolio Overview + Quick Actions ── -->
  <!-- Portfolio card -->
  <rect x="244" y="180" width="780" height="200" rx="10" fill="#FFFFFF" filter="url(#shadow)"/>
  <text x="264" y="204" font-size="14" font-weight="600" fill="#111827">Portfolio Overview</text>
  <text x="264" y="220" font-size="11" fill="#6B7280">Snapshot of assets pledged versus liabilities outstanding.</text>
  <!-- Tiles -->
  <rect x="264" y="232" width="170" height="68" rx="8" fill="#F9FAFB" stroke="#E5E7EB" stroke-width="1"/>
  <text x="276" y="250" font-size="9" fill="#9CA3AF">COLLATERAL PLEDGED</text>
  <text x="276" y="274" font-size="18" font-weight="600" fill="#111827">$155,000</text>
  <rect x="446" y="232" width="170" height="68" rx="8" fill="#F9FAFB" stroke="#E5E7EB" stroke-width="1"/>
  <text x="458" y="250" font-size="9" fill="#9CA3AF">TOTAL PRINCIPAL</text>
  <text x="458" y="274" font-size="18" font-weight="600" fill="#111827">$80,000</text>
  <rect x="628" y="232" width="170" height="68" rx="8" fill="#FFFBEB" stroke="#FDE68A" stroke-width="1"/>
  <text x="640" y="250" font-size="9" fill="#9CA3AF">OUTSTANDING</text>
  <text x="640" y="274" font-size="18" font-weight="600" fill="#D97706">$62,850</text>
  <rect x="810" y="232" width="170" height="68" rx="8" fill="#ECFDF5" stroke="#A7F3D0" stroke-width="1"/>
  <text x="822" y="250" font-size="9" fill="#9CA3AF">REPAID</text>
  <text x="822" y="274" font-size="18" font-weight="600" fill="#059669">$13,500</text>
  <!-- Progress bars -->
  <text x="264" y="322" font-size="11" fill="#374151">Repayment progress</text>
  <text x="940" y="322" font-size="11" font-weight="600" fill="#111827">17.7%</text>
  <rect x="264" y="328" width="680" height="8" rx="4" fill="#F3F4F6"/>
  <rect x="264" y="328" width="120" height="8" rx="4" fill="#10B981"/>
  <text x="264" y="358" font-size="11" fill="#374151">Collateral utilization</text>
  <text x="940" y="358" font-size="11" font-weight="600" fill="#111827">51.6%</text>
  <rect x="264" y="364" width="680" height="8" rx="4" fill="#F3F4F6"/>
  <rect x="264" y="364" width="351" height="8" rx="4" fill="#3B82F6"/>

  <!-- Quick Actions card -->
  <rect x="1036" y="180" width="324" height="200" rx="10" fill="#FFFFFF" filter="url(#shadow)"/>
  <text x="1056" y="204" font-size="14" font-weight="600" fill="#111827">Quick Actions</text>
  <text x="1056" y="220" font-size="11" fill="#6B7280">Shortcuts to common workflows.</text>
  <rect x="1056" y="232" width="136" height="60" rx="8" fill="#F9FAFB" stroke="#E5E7EB" stroke-width="1"/>
  <text x="1076" y="258" font-size="12" font-weight="500" fill="#111827">Originate loan</text>
  <text x="1076" y="274" font-size="10" fill="#6B7280">Pledge collateral</text>
  <rect x="1204" y="232" width="136" height="60" rx="8" fill="#F9FAFB" stroke="#E5E7EB" stroke-width="1"/>
  <text x="1224" y="258" font-size="12" font-weight="500" fill="#111827">Manage escrows</text>
  <text x="1224" y="274" font-size="10" fill="#6B7280">Oracle releases</text>
  <rect x="1056" y="304" width="136" height="60" rx="8" fill="#F9FAFB" stroke="#E5E7EB" stroke-width="1"/>
  <text x="1076" y="330" font-size="12" font-weight="500" fill="#111827">Collateral</text>
  <text x="1076" y="346" font-size="10" fill="#6B7280">Tokenized assets</text>
  <rect x="1204" y="304" width="136" height="60" rx="8" fill="#EFF6FF" stroke="#BFDBFE" stroke-width="1"/>
  <text x="1224" y="330" font-size="12" font-weight="500" fill="#1D4ED8">Liquidity</text>
  <text x="1224" y="346" font-size="10" fill="#3B82F6">Deposit / Withdraw</text>

  <!-- ── Collateral Portfolio table ── -->
  <rect x="244" y="396" width="1116" height="220" rx="10" fill="#FFFFFF" filter="url(#shadow)"/>
  <text x="264" y="420" font-size="14" font-weight="600" fill="#111827">Collateral Portfolio</text>
  <text x="264" y="436" font-size="11" fill="#6B7280">Tokenized assets pledged as collateral. Click column headers to sort.</text>
  <!-- Table header -->
  <rect x="244" y="444" width="1116" height="32" fill="#F9FAFB"/>
  <text x="264" y="464" font-size="10" font-weight="600" fill="#6B7280">LOAN ID ↓</text>
  <text x="380" y="464" font-size="10" font-weight="600" fill="#6B7280">ASSET TYPE</text>
  <text x="520" y="464" font-size="10" font-weight="600" fill="#6B7280">COLLATERAL VALUE</text>
  <text x="680" y="464" font-size="10" font-weight="600" fill="#6B7280">PRINCIPAL</text>
  <text x="800" y="464" font-size="10" font-weight="600" fill="#6B7280">UTILIZATION</text>
  <text x="960" y="464" font-size="10" font-weight="600" fill="#6B7280">STATUS</text>
  <text x="1080" y="464" font-size="10" font-weight="600" fill="#6B7280">MATURITY</text>
  <!-- Row 1 -->
  <line x1="244" y1="476" x2="1360" y2="476" stroke="#F3F4F6" stroke-width="1"/>
  <text x="264" y="496" font-size="11" font-family="monospace" fill="#374151">loan-1</text>
  <text x="380" y="496" font-size="11" fill="#111827">Invoice</text>
  <text x="520" y="496" font-size="11" fill="#111827">$50,000</text>
  <text x="680" y="496" font-size="11" fill="#111827">$25,000</text>
  <rect x="800" y="486" width="100" height="6" rx="3" fill="#E5E7EB"/>
  <rect x="800" y="486" width="50" height="6" rx="3" fill="#3B82F6"/>
  <text x="910" y="496" font-size="10" fill="#6B7280">50.0%</text>
  <rect x="960" y="484" width="52" height="18" rx="9" fill="#ECFDF5"/>
  <text x="972" y="497" font-size="10" fill="#065F46">active</text>
  <text x="1080" y="496" font-size="11" fill="#6B7280">Nov 1, 2026</text>
  <!-- Row 2 -->
  <line x1="244" y1="508" x2="1360" y2="508" stroke="#F3F4F6" stroke-width="1"/>
  <text x="264" y="528" font-size="11" font-family="monospace" fill="#374151">loan-2</text>
  <text x="380" y="528" font-size="11" fill="#111827">Commodity</text>
  <text x="520" y="528" font-size="11" fill="#111827">$75,000</text>
  <text x="680" y="528" font-size="11" fill="#111827">$40,000</text>
  <rect x="800" y="518" width="100" height="6" rx="3" fill="#E5E7EB"/>
  <rect x="800" y="518" width="53" height="6" rx="3" fill="#3B82F6"/>
  <text x="910" y="528" font-size="10" fill="#6B7280">53.3%</text>
  <rect x="960" y="516" width="52" height="18" rx="9" fill="#ECFDF5"/>
  <text x="972" y="529" font-size="10" fill="#065F46">active</text>
  <text x="1080" y="528" font-size="11" fill="#6B7280">Jun 15, 2026</text>
  <!-- Row 3 -->
  <line x1="244" y1="540" x2="1360" y2="540" stroke="#F3F4F6" stroke-width="1"/>
  <text x="264" y="560" font-size="11" font-family="monospace" fill="#374151">loan-3</text>
  <text x="380" y="560" font-size="11" fill="#111827">Receivable</text>
  <text x="520" y="560" font-size="11" fill="#111827">$30,000</text>
  <text x="680" y="560" font-size="11" fill="#111827">$15,000</text>
  <rect x="800" y="550" width="100" height="6" rx="3" fill="#E5E7EB"/>
  <rect x="800" y="550" width="50" height="6" rx="3" fill="#3B82F6"/>
  <text x="910" y="560" font-size="10" fill="#6B7280">50.0%</text>
  <rect x="960" y="548" width="56" height="18" rx="9" fill="#FFFBEB"/>
  <text x="970" y="561" font-size="10" fill="#92400E">pending</text>
  <text x="1080" y="560" font-size="11" fill="#6B7280">Jul 1, 2026</text>

  <!-- ── Activity + Notifications ── -->
  <!-- Recent Activity -->
  <rect x="244" y="632" width="548" height="240" rx="10" fill="#FFFFFF" filter="url(#shadow)"/>
  <text x="264" y="656" font-size="14" font-weight="600" fill="#111827">Recent Activity</text>
  <text x="264" y="672" font-size="11" fill="#6B7280">Latest events across loans, escrows and transactions.</text>
  <!-- Filter pills -->
  <rect x="264" y="680" width="32" height="20" rx="10" fill="#1D4ED8"/>
  <text x="272" y="694" font-size="10" fill="#FFFFFF">All</text>
  <rect x="304" y="680" width="44" height="20" rx="10" fill="#F3F4F6"/>
  <text x="312" y="694" font-size="10" fill="#374151">Loans</text>
  <rect x="356" y="680" width="68" height="20" rx="10" fill="#F3F4F6"/>
  <text x="364" y="694" font-size="10" fill="#374151">Repayments</text>
  <!-- Activity items -->
  <circle cx="276" cy="724" r="5" fill="#3B82F6"/>
  <text x="292" y="720" font-size="12" font-weight="500" fill="#111827">New invoice loan</text>
  <text x="700" y="720" font-size="10" fill="#9CA3AF">Apr 1, 2026</text>
  <text x="292" y="734" font-size="11" fill="#6B7280">Loan loan-3 originated for $15,000.</text>
  <line x1="264" y1="744" x2="776" y2="744" stroke="#F3F4F6" stroke-width="1"/>
  <circle cx="276" cy="762" r="5" fill="#10B981"/>
  <text x="292" y="758" font-size="12" font-weight="500" fill="#111827">Repayment on loan-2</text>
  <text x="700" y="758" font-size="10" fill="#9CA3AF">Mar 10, 2026</text>
  <text x="292" y="772" font-size="11" fill="#6B7280">Received $3,100 (tx ghi789…).</text>
  <line x1="264" y1="782" x2="776" y2="782" stroke="#F3F4F6" stroke-width="1"/>
  <circle cx="276" cy="800" r="5" fill="#10B981"/>
  <text x="292" y="796" font-size="12" font-weight="500" fill="#111827">Repayment on loan-1</text>
  <text x="700" y="796" font-size="10" fill="#9CA3AF">Feb 15, 2026</text>
  <text x="292" y="810" font-size="11" fill="#6B7280">Received $5,200 (tx def456…).</text>
  <line x1="264" y1="820" x2="776" y2="820" stroke="#F3F4F6" stroke-width="1"/>
  <circle cx="276" cy="838" r="5" fill="#3B82F6"/>
  <text x="292" y="834" font-size="12" font-weight="500" fill="#111827">New commodity loan</text>
  <text x="700" y="834" font-size="10" fill="#9CA3AF">Dec 15, 2025</text>
  <text x="292" y="848" font-size="11" fill="#6B7280">Loan loan-2 originated for $40,000.</text>

  <!-- Notification Center -->
  <rect x="808" y="632" width="552" height="240" rx="10" fill="#FFFFFF" filter="url(#shadow)"/>
  <text x="828" y="656" font-size="14" font-weight="600" fill="#111827">Notification Center</text>
  <text x="828" y="672" font-size="11" fill="#6B7280">Alerts and platform updates.</text>
  <text x="1280" y="656" font-size="11" fill="#3B82F6">Clear all</text>
  <!-- Notification items -->
  <rect x="828" y="684" width="512" height="56" rx="8" fill="#ECFDF5" stroke="#A7F3D0" stroke-width="1"/>
  <circle cx="848" cy="712" r="8" fill="#10B981"/>
  <text x="864" y="706" font-size="12" font-weight="500" fill="#111827">Repayment received</text>
  <text x="864" y="720" font-size="11" fill="#374151">Loan loan-1 received a 5,200 USDC repayment.</text>
  <text x="1280" y="706" font-size="10" fill="#9CA3AF">Apr 22</text>
  <rect x="828" y="748" width="512" height="56" rx="8" fill="#FFFBEB" stroke="#FDE68A" stroke-width="1"/>
  <circle cx="848" cy="776" r="8" fill="#F59E0B"/>
  <text x="864" y="770" font-size="12" font-weight="500" fill="#111827">Escrow awaiting release</text>
  <text x="864" y="784" font-size="11" fill="#374151">Escrow esc-009 is awaiting oracle confirmation.</text>
  <text x="1280" y="770" font-size="10" fill="#9CA3AF">Apr 23</text>
  <rect x="828" y="812" width="512" height="48" rx="8" fill="#EFF6FF" stroke="#BFDBFE" stroke-width="1"/>
  <circle cx="848" cy="836" r="8" fill="#3B82F6"/>
  <text x="864" y="830" font-size="12" font-weight="500" fill="#6B7280">Risk score updated</text>
  <text x="864" y="844" font-size="11" fill="#9CA3AF">Your aggregate risk score improved to A.</text>
  <text x="1280" y="830" font-size="10" fill="#9CA3AF">Apr 24</text>

  <!-- ── MOBILE VIEW (right panel) ── -->
  <!-- Phone frame -->
  <rect x="1370" y="20" width="0" height="0"/>

  <!-- Drop shadow filter -->
  <defs>
    <filter id="shadow" x="-5%" y="-5%" width="110%" height="120%">
      <feDropShadow dx="0" dy="1" stdDeviation="2" flood-color="#00000015"/>
    </filter>
  </defs>
</svg>
